<svg width="23" height="37" viewBox="0 0 23 37" fill="none" xmlns="http://www.w3.org/2000/svg">
<path d="M2.38883 21.4052H7.19313C7.36813 21.4052 7.51031 21.2805 7.52125 21.1202L8.83375 0.671416C8.83922 0.588291 8.80367 0.508135 8.74352 0.445791C8.68063 0.386416 8.59313 0.35376 8.50563 0.35376H1.07906C0.98883 0.35376 0.90133 0.389385 0.841174 0.445791C0.778283 0.508135 0.745471 0.588291 0.748205 0.671416L2.0607 21.1202C2.06891 21.2775 2.21383 21.4052 2.38883 21.4052ZM0.904064 32.152C0.904064 31.401 1.00524 30.7627 1.20485 30.2402C1.40445 29.7177 1.68063 29.2961 2.0361 28.9755C2.38883 28.6549 2.80719 28.4233 3.28844 28.2778C3.76696 28.1353 4.28102 28.0611 4.82789 28.0611C5.34469 28.0611 5.83414 28.1353 6.29899 28.2778C6.76383 28.4233 7.17399 28.6549 7.52945 28.9755C7.88492 29.2961 8.16656 29.7177 8.37164 30.2402C8.57672 30.7597 8.68063 31.398 8.68063 32.152C8.68063 32.8735 8.57672 33.491 8.37164 34.0045C8.16383 34.5181 7.88219 34.9427 7.52945 35.2781C7.17399 35.6136 6.76656 35.86 6.29899 36.0114C5.83414 36.1628 5.34469 36.24 4.82789 36.24C4.28102 36.24 3.76696 36.1658 3.28844 36.0114C2.80719 35.857 2.38883 35.6136 2.0361 35.2781C1.68336 34.9397 1.40445 34.5152 1.20485 34.0045C1.00524 33.491 0.904064 32.8735 0.904064 32.152ZM15.8064 21.4052H20.6107C20.7857 21.4052 20.9306 21.2805 20.9388 21.1202L22.2513 0.671416C22.2568 0.588291 22.2213 0.508135 22.1611 0.445791C22.0982 0.386416 22.0107 0.35376 21.9232 0.35376H14.4966C14.4064 0.35376 14.3189 0.389385 14.2588 0.445791C14.1931 0.508135 14.1603 0.588291 14.1685 0.671416L15.4783 21.1202C15.4865 21.2775 15.6314 21.4052 15.8064 21.4052ZM14.3216 32.152C14.3216 31.401 14.4228 30.7627 14.6224 30.2402C14.822 29.7177 15.0982 29.2961 15.4537 28.9755C15.8064 28.6549 16.2248 28.4233 16.706 28.2778C17.1845 28.1353 17.6986 28.0611 18.2455 28.0611C18.7623 28.0611 19.2517 28.1353 19.7166 28.2778C20.1841 28.4233 20.5916 28.6549 20.9443 28.9755C21.2998 29.2961 21.5814 29.7177 21.7865 30.2402C21.9916 30.7597 22.0955 31.398 22.0955 32.152C22.0955 32.8735 21.9916 33.491 21.7865 34.0045C21.5787 34.5181 21.2998 34.9427 20.9443 35.2781C20.5887 35.6161 20.1698 35.8662 19.7166 36.0114C19.2517 36.1628 18.7623 36.24 18.2455 36.24C17.6986 36.24 17.1845 36.1658 16.706 36.0114C16.2248 35.857 15.8064 35.6136 15.4537 35.2781C15.1009 34.9397 14.8248 34.5152 14.6224 34.0045C14.4228 33.491 14.3216 32.8735 14.3216 32.152Z" fill="#F4CA17"/>
</svg>
