<svg width="18" height="11" viewBox="0 0 18 11" fill="none" xmlns="http://www.w3.org/2000/svg">
<path d="M0.75 9.75C0.75 9.55109 0.822433 9.36032 0.951364 9.21967C1.0803 9.07902 1.25516 9 1.4375 9H5.5625C5.74484 9 5.9197 9.07902 6.04864 9.21967C6.17757 9.36032 6.25 9.55109 6.25 9.75C6.25 9.94891 6.17757 10.1397 6.04864 10.2803C5.9197 10.421 5.74484 10.5 5.5625 10.5H1.4375C1.25516 10.5 1.0803 10.421 0.951364 10.2803C0.822433 10.1397 0.75 9.94891 0.75 9.75ZM0.75 5.25C0.75 5.05109 0.822433 4.86032 0.951364 4.71967C1.0803 4.57902 1.25516 4.5 1.4375 4.5H11.0625C11.2448 4.5 11.4197 4.57902 11.5486 4.71967C11.6776 4.86032 11.75 5.05109 11.75 5.25C11.75 5.44891 11.6776 5.63968 11.5486 5.78033C11.4197 5.92098 11.2448 6 11.0625 6H1.4375C1.25516 6 1.0803 5.92098 0.951364 5.78033C0.822433 5.63968 0.75 5.44891 0.75 5.25ZM0.75 0.75C0.75 0.551088 0.822433 0.360322 0.951364 0.21967C1.0803 0.0790178 1.25516 0 1.4375 0H16.5625C16.7448 0 16.9197 0.0790178 17.0486 0.21967C17.1776 0.360322 17.25 0.551088 17.25 0.75C17.25 0.948912 17.1776 1.13968 17.0486 1.28033C16.9197 1.42098 16.7448 1.5 16.5625 1.5H1.4375C1.25516 1.5 1.0803 1.42098 0.951364 1.28033C0.822433 1.13968 0.75 0.948912 0.75 0.75Z" fill="#2677B1"/>
</svg>
