<svg width="17" height="18" viewBox="0 0 17 18" fill="none" xmlns="http://www.w3.org/2000/svg">
<path d="M0.0240691 2.26679C0.97983 2.13175 1.90553 2.03014 2.81894 1.8668C4.67444 1.53498 6.43634 0.942072 8.08963 0.0765018C8.26452 -0.014814 8.39774 -0.0315338 8.58424 0.0655696C11.0129 1.32727 13.6268 1.99863 16.3847 2.19348C16.5849 2.20763 16.6901 2.24171 16.6956 2.46422C16.7564 4.85772 16.6969 7.24543 16.091 9.58427C15.0648 13.5436 12.5555 16.3455 8.57536 17.9635C8.43531 18.0207 8.21943 18.0072 8.07596 17.9474C4.53644 16.4754 2.07496 14.0787 0.90878 10.5585C0.418944 9.07818 0.14909 7.56311 0.06301 6.02167C0.000157983 4.88923 0.0165542 3.75228 0.000157984 2.61727C-0.00189154 2.49122 0.0165542 2.36518 0.0233859 2.26679H0.0240691ZM6.98083 12.8099C9.27835 10.61 11.5219 8.46212 13.706 6.37021C13.3227 5.97473 12.9723 5.61332 12.6013 5.23005C10.7233 7.03065 8.86435 8.81323 6.91183 10.6858C6.16922 9.92188 5.45736 9.19007 4.74071 8.45247C4.30621 8.86403 3.93524 9.21515 3.6162 9.51675C4.72841 10.6055 5.83925 11.6923 6.98083 12.8099Z" fill="#2677B1"/>
<path d="M6.97938 12.8064C5.8378 11.6888 4.72695 10.602 3.61475 9.51326C3.93379 9.21166 4.30475 8.8599 4.73925 8.44898C5.4559 9.18658 6.16777 9.91839 6.91038 10.6824C8.86289 8.80974 10.7225 7.02715 12.5999 5.22656C12.9708 5.60919 13.3213 5.97124 13.7045 6.36672C11.5198 8.45862 9.2769 10.6065 6.97938 12.8064Z" fill="white"/>
</svg>
