<svg width="18" height="18" viewBox="0 0 18 18" fill="none" xmlns="http://www.w3.org/2000/svg">
<g clip-path="url(#clip0_656_22510)">
<path d="M17.989 16.0495C17.9892 16.3042 17.9391 16.5565 17.8418 16.7918C17.7444 17.0272 17.6016 17.2411 17.4215 17.4212C17.2414 17.6013 17.0276 17.7442 16.7923 17.8417C16.557 17.9392 16.3048 17.9893 16.0501 17.9893H1.93838C1.68372 17.9893 1.43156 17.9391 1.19631 17.8416C0.961061 17.744 0.747328 17.6011 0.567322 17.421C0.387316 17.2409 0.244565 17.027 0.147222 16.7917C0.049879 16.5564 -0.000147455 16.3042 3.2646e-07 16.0495V1.93894C3.04824e-07 1.4248 0.204203 0.931706 0.567703 0.5681C0.931203 0.204495 1.42423 0.000149156 1.93838 0L16.0501 0C16.5643 0 17.0575 0.20428 17.4211 0.567902C17.7848 0.931523 17.989 1.4247 17.989 1.93894V16.0495Z" fill="#2677B1"/>
<path d="M4.72159 7.1133V3.8598C4.11606 4.32498 3.70853 4.55702 3.49871 4.55702C3.39887 4.55702 3.30971 4.51736 3.23293 4.4372C3.19584 4.40125 3.16639 4.35819 3.14633 4.31059C3.12627 4.26299 3.11603 4.21183 3.11621 4.16017C3.11621 4.03867 3.15446 3.94952 3.23068 3.89158C3.3069 3.83448 3.44162 3.76108 3.63456 3.67052C3.92284 3.53467 4.15403 3.39208 4.32643 3.24189C4.49848 3.09202 4.65277 2.92292 4.78628 2.73789C4.91931 2.55114 5.00593 2.43723 5.04643 2.3942C5.08665 2.35117 5.16399 2.33008 5.27565 2.33008C5.40165 2.33008 5.5029 2.37873 5.57968 2.47661C5.6559 2.57448 5.69359 2.7092 5.69359 2.88048V6.9738C5.69359 7.4522 5.53074 7.69211 5.20393 7.69211C5.05909 7.69211 4.94209 7.64289 4.85349 7.5453C4.76518 7.44798 4.72159 7.30342 4.72159 7.1133ZM12.2034 6.80364H14.0695C14.2551 6.80364 14.3969 6.84161 14.4953 6.91783C14.5923 6.99405 14.6416 7.09811 14.6416 7.22889C14.6416 7.34589 14.603 7.44433 14.5257 7.52561C14.4481 7.60689 14.3308 7.64739 14.1738 7.64739H11.5425C11.3636 7.64739 11.2241 7.59817 11.1237 7.49861C11.0762 7.45401 11.0385 7.40009 11.0128 7.34022C10.9872 7.28036 10.9742 7.21583 10.9746 7.1507C10.9746 7.06492 11.0067 6.95073 11.0708 6.80898C11.1355 6.6678 11.2055 6.55614 11.2817 6.47486C11.5597 6.18472 11.8458 5.90242 12.1396 5.6283C12.3947 5.39373 12.5772 5.23933 12.6866 5.16536C12.8821 5.02727 13.0443 4.88861 13.1737 4.74939C13.2948 4.62277 13.3951 4.47783 13.471 4.31992C13.5361 4.18571 13.5709 4.03878 13.5728 3.88961C13.5728 3.73717 13.5362 3.60048 13.4637 3.48011C13.3925 3.36111 13.2898 3.26407 13.167 3.1997C13.0413 3.13246 12.9008 3.09793 12.7583 3.0993C12.4453 3.0993 12.2 3.23627 12.0209 3.51048C11.9978 3.5462 11.9576 3.64436 11.9016 3.80355C11.8454 3.96386 11.7824 4.08761 11.7126 4.17198C11.642 4.25777 11.5394 4.3008 11.403 4.3008C11.2837 4.3008 11.185 4.26086 11.1062 4.18239C11.0272 4.10392 10.9881 3.99677 10.9881 3.86064C10.9881 3.69611 11.025 3.52483 11.0992 3.34623C11.1753 3.16345 11.2878 2.99802 11.4297 2.85995C11.5765 2.71455 11.7624 2.59698 11.9871 2.50755C12.2121 2.41867 12.4759 2.37367 12.7788 2.37367C13.1433 2.37367 13.4538 2.43048 13.712 2.54552C13.8776 2.62055 14.0269 2.72738 14.1513 2.85995C14.4091 3.13222 14.5526 3.49302 14.5521 3.86795C14.5521 4.16355 14.4784 4.43327 14.3327 4.6743C14.1859 4.91617 14.0357 5.10517 13.8839 5.24242C13.7309 5.37967 13.4752 5.59455 13.1169 5.88733C12.758 6.18039 12.5125 6.40848 12.3789 6.5702C12.3146 6.64296 12.2559 6.72053 12.2034 6.80223M4.80371 12.3865C5.02309 12.3865 5.21265 12.322 5.37184 12.1932C5.53046 12.0647 5.60893 11.8799 5.60893 11.6392C5.60893 11.4555 5.54593 11.2975 5.41993 11.1661C5.29337 11.0331 5.12265 10.967 4.90834 10.967C4.76349 10.967 4.64312 10.9875 4.54974 11.0277C4.46314 11.0623 4.38629 11.1176 4.32587 11.1886C4.27046 11.2547 4.21871 11.341 4.17006 11.446C4.1214 11.5509 4.07724 11.6493 4.03618 11.743C4.00851 11.7963 3.96275 11.8381 3.90709 11.8608C3.83985 11.8906 3.76687 11.9052 3.69334 11.9035C3.59771 11.9035 3.51053 11.8647 3.43037 11.7871C3.35078 11.7098 3.31084 11.6065 3.31084 11.478C3.31084 11.3537 3.34909 11.2235 3.42306 11.0868C3.49815 10.9498 3.60812 10.8188 3.7524 10.6947C3.8964 10.5713 4.07556 10.4717 4.29043 10.3963C4.50418 10.3212 4.74353 10.2835 5.00874 10.2835C5.23965 10.2835 5.45087 10.3159 5.64156 10.3786C5.82317 10.4368 5.99183 10.5295 6.13824 10.6517C6.27859 10.7712 6.38462 10.909 6.45662 11.0668C6.52834 11.2243 6.56378 11.3934 6.56378 11.5748C6.56378 11.813 6.51174 12.0175 6.40768 12.187C6.3039 12.3583 6.15568 12.524 5.96274 12.6865C6.14837 12.7864 6.30474 12.9009 6.43299 13.0291C6.56068 13.1585 6.65603 13.3005 6.72015 13.4569C6.78456 13.6127 6.81634 13.7817 6.81634 13.9631C6.81634 14.18 6.77331 14.3898 6.68724 14.5917C6.59771 14.7969 6.46671 14.9813 6.30249 15.1334C6.1282 15.2958 5.92344 15.422 5.70006 15.5047C5.46746 15.5941 5.21068 15.6391 4.92971 15.6391C4.6434 15.6391 4.38718 15.5874 4.16134 15.4847C3.93409 15.3832 3.7479 15.2552 3.60165 15.1014C3.45484 14.9478 3.34403 14.7886 3.26893 14.6241C3.19384 14.4595 3.15671 14.3243 3.15671 14.2163C3.15671 14.0785 3.20143 13.9665 3.29059 13.8824C3.38003 13.7972 3.49112 13.7556 3.62471 13.7556C3.69165 13.7556 3.75634 13.7747 3.81765 13.8146C3.88009 13.854 3.92031 13.901 3.93971 13.9555C4.06346 14.2871 4.19621 14.533 4.33768 14.6938C4.48028 14.8544 4.67912 14.9351 4.93674 14.9351C5.09102 14.935 5.24266 14.8951 5.37704 14.8194C5.51143 14.7436 5.62403 14.6345 5.70399 14.5026C5.79343 14.3591 5.83815 14.194 5.83815 14.0056C5.83815 13.7266 5.76137 13.5075 5.60893 13.3497C5.45649 13.1911 5.24415 13.1121 4.97303 13.1121C4.92493 13.1121 4.85181 13.1166 4.7514 13.1267C4.65099 13.1351 4.58687 13.1402 4.55846 13.1402C4.42768 13.1402 4.32587 13.1079 4.25415 13.0418C4.18271 12.976 4.14756 12.8854 4.14756 12.7681C4.14756 12.6548 4.19059 12.5617 4.27581 12.4916C4.36159 12.4213 4.48956 12.3862 4.65859 12.3862H4.80428L4.80371 12.3865ZM13.2182 15.1165V14.4525H11.4235C11.1968 14.4525 11.0272 14.4005 10.9144 14.2984C10.8011 14.1957 10.7446 14.0562 10.7446 13.8799C10.7446 13.8346 10.7524 13.7888 10.7699 13.7424C10.7859 13.6954 10.8112 13.6467 10.8447 13.5958C10.8781 13.5444 10.913 13.4949 10.9485 13.4473C10.9842 13.3998 11.0278 13.3419 11.0809 13.2721L12.9749 10.738C13.0986 10.5715 13.2007 10.4506 13.2809 10.375C13.3191 10.3383 13.3641 10.3096 13.4134 10.2904C13.4628 10.2713 13.5154 10.2621 13.5683 10.2633C13.9308 10.2633 14.1117 10.47 14.1117 10.8843V13.6518H14.2658C14.4489 13.6518 14.596 13.6765 14.7068 13.7269C14.8176 13.7767 14.8733 13.8864 14.8733 14.0557C14.8733 14.1938 14.8286 14.2945 14.7372 14.3577C14.6469 14.421 14.5108 14.4531 14.3297 14.4531H14.112V15.1171C14.112 15.3005 14.0717 15.4375 13.9896 15.5263C13.9092 15.6155 13.8009 15.6608 13.6651 15.6608C13.5317 15.6608 13.4243 15.6146 13.3419 15.523C13.2592 15.4304 13.2182 15.296 13.2182 15.1168M11.6808 13.6515H13.2182V11.5748L11.6808 13.6515Z" fill="white"/>
</g>
<defs>
<clipPath id="clip0_656_22510">
<rect width="18" height="18" fill="white"/>
</clipPath>
</defs>
</svg>
