<svg width="18" height="18" viewBox="0 0 18 18" fill="none" xmlns="http://www.w3.org/2000/svg">
<path d="M0.25 2.75C0.25 2.08696 0.513392 1.45107 0.982233 0.982233C1.45107 0.513392 2.08696 0.25 2.75 0.25H15.25C15.913 0.25 16.5489 0.513392 17.0178 0.982233C17.4866 1.45107 17.75 2.08696 17.75 2.75V15.25C17.75 15.913 17.4866 16.5489 17.0178 17.0178C16.5489 17.4866 15.913 17.75 15.25 17.75H2.75C2.08696 17.75 1.45107 17.4866 0.982233 17.0178C0.513392 16.5489 0.25 15.913 0.25 15.25V2.75Z" fill="#2677B1"/>
<path d="M7.98795 3.86781C7.51295 3.86781 7.12857 4.25219 7.12857 4.72719V13.2203C7.12857 13.6947 7.51357 14.0797 7.98795 14.0797H10.0536C12.898 14.0797 15.2273 11.8066 15.2273 8.97344C15.2273 6.14094 12.898 3.86719 10.0536 3.86719H7.98732L7.98795 3.86781ZM8.92545 12.3609C8.90473 12.3609 8.88486 12.3527 8.87021 12.3381C8.85556 12.3234 8.84732 12.3035 8.84732 12.2828V5.66406C8.84732 5.62156 8.88232 5.58656 8.92545 5.58656H10.0536C11.9748 5.58656 13.5086 7.11594 13.5086 8.97406C13.5086 10.8316 11.9748 12.3609 10.0536 12.3609H8.92482H8.92545ZM5.72607 4.78969C5.72595 4.67683 5.7036 4.56511 5.6603 4.46089C5.617 4.35667 5.55359 4.26201 5.47371 4.18229C5.39382 4.10258 5.29901 4.03938 5.1947 3.99631C5.09039 3.95323 4.97862 3.93113 4.86576 3.93125C4.75291 3.93137 4.64118 3.95372 4.53697 3.99702C4.43275 4.04033 4.33808 4.10373 4.25837 4.18362C4.17865 4.26351 4.11546 4.35831 4.07238 4.46262C4.02931 4.56693 4.0072 4.67871 4.00732 4.79156L4.01607 13.1572C4.01632 13.3851 4.1071 13.6036 4.26844 13.7646C4.42978 13.9256 4.64847 14.0159 4.87639 14.0156C5.10431 14.0154 5.32279 13.9246 5.48378 13.7633C5.64477 13.6019 5.73507 13.3832 5.73482 13.1553L5.72607 4.78969Z" fill="white"/>
</svg>
