<svg width="24" height="22" viewBox="0 0 24 22" fill="none" xmlns="http://www.w3.org/2000/svg">
<path d="M12 8.68555C14.2523 8.68555 16.0781 6.85971 16.0781 4.60742C16.0781 2.35514 14.2523 0.529297 12 0.529297C9.74771 0.529297 7.92188 2.35514 7.92188 4.60742C7.92188 6.85971 9.74771 8.68555 12 8.68555Z" fill="white"/>
<path d="M20.25 8.68555C21.6739 8.68555 22.8281 7.53128 22.8281 6.10742C22.8281 4.68356 21.6739 3.5293 20.25 3.5293C18.8261 3.5293 17.6719 4.68356 17.6719 6.10742C17.6719 7.53128 18.8261 8.68555 20.25 8.68555Z" fill="white"/>
<path d="M3.75 8.68555C5.17386 8.68555 6.32812 7.53128 6.32812 6.10742C6.32812 4.68356 5.17386 3.5293 3.75 3.5293C2.32614 3.5293 1.17188 4.68356 1.17188 6.10742C1.17188 7.53128 2.32614 8.68555 3.75 8.68555Z" fill="white"/>
<path d="M6.29016 11.0006C5.27531 10.1692 4.35623 10.2792 3.18281 10.2792C1.42781 10.2792 0 11.6986 0 13.4428V18.562C0 19.3195 0.618281 19.9355 1.37859 19.9355C4.66106 19.9355 4.26562 19.9949 4.26562 19.7939C4.26562 16.1665 3.83597 13.5063 6.29016 11.0006Z" fill="white"/>
<path d="M13.1162 10.2985C11.0667 10.1275 9.28518 10.3004 7.74857 11.5688C5.17715 13.6285 5.67201 16.4017 5.67201 19.7944C5.67201 20.692 6.40232 21.436 7.31357 21.436C17.208 21.436 17.6018 21.7551 18.1886 20.4558C18.381 20.0164 18.3283 20.1561 18.3283 15.9525C18.3283 12.6138 15.4373 10.2985 13.1162 10.2985Z" fill="white"/>
<path d="M20.8173 10.2791C19.6375 10.2791 18.7234 10.1702 17.71 11.0005C20.1458 13.4875 19.7345 15.9662 19.7345 19.7938C19.7345 19.996 19.4062 19.9354 22.5723 19.9354C23.3598 19.9354 24.0001 19.2974 24.0001 18.5132V13.4427C24.0001 11.6985 22.5723 10.2791 20.8173 10.2791Z" fill="white"/>
</svg>
