<svg width="29" height="29" viewBox="0 0 29 29" fill="none" xmlns="http://www.w3.org/2000/svg">
<path d="M20.0258 9.33887C20.0258 9.19707 19.9098 9.08105 19.768 9.08105L17.641 9.09072L14.4377 12.9096L11.2376 9.09395L9.10742 9.08428C8.96563 9.08428 8.84961 9.19707 8.84961 9.34209C8.84961 9.40332 8.87217 9.46133 8.91084 9.50967L13.1035 14.5048L8.91084 19.4967C8.8719 19.5439 8.85029 19.603 8.84961 19.6643C8.84961 19.8061 8.96563 19.9221 9.10742 19.9221L11.2376 19.9124L14.4377 16.0936L17.6378 19.9092L19.7647 19.9188C19.9065 19.9188 20.0226 19.8061 20.0226 19.661C20.0226 19.5998 20 19.5418 19.9613 19.4935L15.7751 14.5016L19.9678 9.50645C20.0064 9.46133 20.0258 9.4001 20.0258 9.33887Z" fill="#37A9FB"/>
<path d="M14.4375 0C6.46465 0 0 6.46465 0 14.4375C0 22.4104 6.46465 28.875 14.4375 28.875C22.4104 28.875 28.875 22.4104 28.875 14.4375C28.875 6.46465 22.4104 0 14.4375 0ZM14.4375 26.4258C7.81816 26.4258 2.44922 21.0568 2.44922 14.4375C2.44922 7.81816 7.81816 2.44922 14.4375 2.44922C21.0568 2.44922 26.4258 7.81816 26.4258 14.4375C26.4258 21.0568 21.0568 26.4258 14.4375 26.4258Z" fill="#37A9FB"/>
</svg>
