<svg width="10" height="8" viewBox="0 0 10 8" fill="none" xmlns="http://www.w3.org/2000/svg">
<path d="M0.214613 1.72944C0.35207 1.58253 0.538478 1.5 0.732844 1.5C0.927209 1.5 1.11362 1.58253 1.25107 1.72944L4.87943 5.60846L8.50778 1.72944C8.64602 1.58669 8.83118 1.50771 9.02337 1.50949C9.21556 1.51128 9.39941 1.59369 9.53531 1.73899C9.67121 1.88428 9.7483 2.08083 9.74997 2.28629C9.75164 2.49176 9.67776 2.68971 9.54424 2.83751L5.39766 7.27056C5.2602 7.41747 5.07379 7.5 4.87943 7.5C4.68506 7.5 4.49865 7.41747 4.36119 7.27056L0.214613 2.83751C0.0771962 2.69055 0 2.49127 0 2.28347C0 2.07568 0.0771962 1.87639 0.214613 1.72944Z" fill="#031624"/>
</svg>
